<svg viewBox="0 0 72 72" xmlns="http://www.w3.org/2000/svg"><path d="m55.785 34.99a.9992.9992 0 0 1 .1055 1.041l-3.8946 8.0626a1.0021 1.0021 0 0 1 -.706.5468l-10.7979 2.1379a1.007 1.007 0 0 1 -.7939-.1806l-23.4844-17.5777a1.0007 1.0007 0 0 1 -.1758-1.4316l2.4385-2.9971a.9981.9981 0 0 1 .3252-.2627l18.3057-9.2217a1.0147 1.0147 0 0 1 .6572-.0849l3.8193.8066a.9974.9974 0 0 1 .6367.4424l2.6731 4.144 1.6213 2.4905z" fill="#d0cfce"/><path d="m26.692 56h20.096l-6.471-10.181-23.374-17.6-1.129 4.827z" fill="#3f3f3f"/><path d="m54.78 36.031 1.348 11.513-1.659 8.456h-7.681l-6.471-10.181 10.622-1.879z" fill="#9b9b9a"/><g fill="none" stroke="#000" stroke-linecap="round" stroke-linejoin="round" stroke-width="2"><path d="m45.797 23.608 9.193 11.989 1.138 11.642-1.659 8.761h-27.777l-10.692-23.14.813-4.641 2.439-2.997 18.306-9.222 3.819.807 2.643 4.11-5.012 3.353"/><path d="m47.359 56-7.061-10.203-23.485-17.578"/><path d="m54.99 35.597-3.895 8.062-10.797 2.138"/></g></svg>