<svg viewBox="0 0 72 72" xmlns="http://www.w3.org/2000/svg"><g stroke-width=".6256" transform="matrix(1.264 0 0 1.264 -8.725 -6.562)"><path d="m39.04 14.27.0438-2.79-7.178.0215-.0231 2.688 1.136 1.506a2.6 2.6 0 0 1 .507 1.566l-.0521 21.89h3.682l.2063-21.75a2.558 2.558 0 0 1 .6584-1.715z" fill="#a57939"/><path d="m35.38 39.58v15.84c-1.824-.01571-3.793-.8574-5.827-2.064l-.1956-13.78z" fill="#d0cfce"/><path d="m41.4 39.58v13.87l-6.023 2.24v-16.11z" fill="#9b9b9a"/></g><g fill="none"><path d="m40.8 11.51.057-3.538-9.34.02726-.03006 3.409 1.478 1.91a3.383 3.297 0 0 1 .6597 1.986l-.0678 27.75h4.792l.2685-27.58a3.328 3.243 0 0 1 .8568-2.174z" stroke="#000" stroke-linecap="round" stroke-linejoin="round" stroke-width="2"/><path d="m36.16 43.43-.0036 20.27s-6.522-.6626-7.042-1.74c-.5203-1.077-.5829-18.33-.5829-18.33z"/><path d="m43.45 43.82.07691 17.61s-6.788 3.69-7.303 2.612c-.01926-1.633-.4829-20.46-.4829-20.46z"/><g stroke="#000" stroke-linecap="round" stroke-linejoin="round" stroke-width="2"><path d="m43.61 61.02v-17.54l-15.23.001s.2472 17.38.2472 17.42l.5058.4658c3.928 3.495 9.924 3.555 13.92.1382z"/><path d="m31.84 43.48 2.733 6.094c.6533.9651 2.095.9978 2.793.0634l2.801-6.157"/></g></g></svg>