<svg fill="none" height="20" viewBox="0 0 20 20" width="20" xmlns="http://www.w3.org/2000/svg"><g fill="#212121"><path d="m6.96967 4.78033c.29289.29289.76777.29289 1.06066 0l1.21967-1.21967v3.18934c0 .41421.33579.75.75.75.4142 0 .75-.33579.75-.75v-3.18934l1.2197 1.21967c.2929.29289.7677.29289 1.0606 0s.2929-.76777 0-1.06066l-2.5-2.5c-.2929-.292893-.76774-.292893-1.06063 0l-2.5 2.5c-.29289.29289-.29289.76777 0 1.06066z"/><path d="m4.78033 8.03033c.29289-.29289.29289-.76777 0-1.06066s-.76777-.29289-1.06066 0l-2.5 2.5c-.292893.29289-.292893.76773 0 1.06063l2.5 2.5c.29289.2929.76777.2929 1.06066 0s.29289-.7677 0-1.0606l-1.21967-1.2197h3.18934c.41421 0 .75-.3358.75-.75 0-.41421-.33579-.75-.75-.75h-3.18934z"/><path d="m15.2197 6.96967c.2929-.29289.7677-.29289 1.0606 0l2.5 2.5c.2929.29289.2929.76773 0 1.06063l-2.5 2.5c-.2929.2929-.7677.2929-1.0606 0s-.2929-.7677 0-1.0606l1.2196-1.2197h-3.1893c-.4142 0-.75-.3358-.75-.75 0-.41421.3358-.75.75-.75h3.1893l-1.2196-1.21967c-.2929-.29289-.2929-.76777 0-1.06066z"/><path d="m9.25 16.4393-1.21967-1.2196c-.29289-.2929-.76777-.2929-1.06066 0s-.29289.7677 0 1.0606l2.5 2.5c.29289.2929.76773.2929 1.06063 0l2.5-2.5c.2929-.2929.2929-.7677 0-1.0606s-.7677-.2929-1.0606 0l-1.2197 1.2196v-3.1893c0-.4142-.3358-.75-.75-.75-.41421 0-.75.3358-.75.75z"/></g></svg>