<svg version="1.2" xmlns="http://www.w3.org/2000/svg" viewBox="0 0 1024 1024" width="25" height="25">
	<title>farmer2</title>
	<style>
		.s0 { fill: #405e62 } 
		.s1 { fill: #496e71 } 
		.s2 { fill: #5b656b } 
		.s3 { fill: #f9b77c } 
		.s4 { fill: #542c1f } 
		.s5 { fill: #4b6f73 } 
		.s6 { fill: #99452c } 
		.s7 { fill: #87432e } 
		.s8 { fill: #532c1f } 
		.s9 { fill: #98442c } 
		.s10 { fill: #76452d } 
		.s11 { fill: #7d5530 } 
		.s12 { fill: #713a28 } 
		.s13 { fill: #7e5631 } 
		.s14 { fill: #587d81 } 
		.s15 { fill: #435056 } 
		.s16 { fill: #f49d67 } 
		.s17 { fill: #3a1811 } 
		.s18 { fill: #3f5b60 } 
		.s19 { fill: #8c3822 } 
		.s20 { fill: #5a8084 } 
		.s21 { fill: #f5a770 } 
		.s22 { fill: #fbfbfb } 
		.s23 { fill: #86523d } 
	</style>
	<path class="s0" d="m433.2 844.2c0-4.2 0-8.3 0-12.9 3.8 0 7.5 0 11.9 0 1.3-17.1 2.6-33.8 4.3-51.1 1.1-6.6 2-12.6 2.6-18.6q1.6-18.2 2.8-36.4c0.1-1.3-1.2-2.8-1.9-4.2-6.6-4.5-13.1-9-19.8-13.3-26.9-17.7-53.8-35.3-80.9-53.5-1.7-1.3-3.1-2-4.5-2.6 0 0-0.1-0.1-0.1-0.5-0.5-0.9-1.1-1.6-1.6-2.5 0.7-2.4 1.1-4.7 2.2-6.5 2.6-4.4 1-6.8-2.9-9.6-16.7-12.2-33.1-24.9-49.6-37.3-3.3-2.4-6.6-4.7-9.9-7.2-1.8 5.2-3.4 9.7-4.8 14.3-5.9 18.9-11.8 38-17.7 57-5.7 18.5-11.4 37-17.5 55.4-4.4 13.1-6.8 27.1-16.2 38.2-2.5 2.8-4.5 6.1-6.7 9.3q-14.1 20.4-28.3 40.8c-7.2 10.4-14.4 20.7-22 31-2.2-0.6-4.1-1.1-6.3-1.8-4.1 8.4-8.1 16.8-12.3 25.1-0.8 1.7-2.1 3.2-3.5 4.8-3.6-1.5-6.7-2.9-9.9-4.3q-7.7-3.4-15.4-6.8c-1.1-1-2.4-1.8-3.1-3-0.9-1.4-2.1-3.7-1.5-4.7 4.4-8.4 9.2-16.5 13.9-24.9q2.7 1.2 5.7 2.6c21.2-30.2 42.3-60.2 63.3-90.4 1.4-2 1.7-4.7 2.4-7.2 2-8.4 4.2-16.8 6-25.2 2.5-11.1 4.5-22.3 7.1-33.4q7.9-35.2 16.2-70.3c1.2-5.1 3.3-10.1 5.5-15.5 1.2-1.9 1.7-3.5 2.2-5.1 0 0 0 0 0.3-0.1 2.3-5.1 4.3-10.1 6.2-15.1 0 0 0-0.1 0.4-0.1 2.6-5.6 4.8-11.2 7.1-16.8 0 0 0 0.1 0.3 0 1.9-0.3 3.6-0.6 5.6-0.8 3.9 2.7 7.6 5.3 11.3 8.3 0 1.4 0 2.4 0 3.8 1.3 0.9 2.6 1.8 3.9 1.8 8.7 0.1 17.4 0 26.4 0 0.1 0 0.5-0.1 0.8 0.1 2.5 1.9 4.7 3.8 6.9 5.4 18.8 13.9 37.6 27.7 56.3 41.7 24.1 18 48.1 36.3 72.2 54.3 20.4 15.3 40.9 30.4 61.2 45.9-2.2 2.6-4.2 4.9-6.6 7.6 4.5 3 8.5 5.7 12.5 8.3 0 0 0.1 0 0.2 0.2 0.3 0.5 0.7 0.6 1 0.7 0.1 0 0 0 0 0.2 0.4 0.5 0.7 0.8 1.2 1.2 2.3 1.8 4.4 3.2 6.7 5 5.9 4.4 11.5 8.5 17.3 12.9 2.7 2.1 5.2 3.9 7.9 5.9 2.8 2.4 5.4 4.4 8 7-0.4 7.9-0.7 15.3-1.4 22.7-10.3-5.6-20.1-11.3-30-16.9-7.8-4.3-15.5-8.6-24.2-13.5-0.2 4.6-0.2 8-0.6 11.4-1.5 13.8-3.3 27.6-4.8 41.4-1.1 11.2-2 22.4-3.4 33.6-1.8 0-3.2 0.2-4.5 0-5.2-0.9-6.5 1.4-6.2 6.3 0.4 7.7 0.3 15.5 0 23.3-0.1 3.1 0.8 5.3 2.8 7.1-7.9-0.1-15.3-0.3-22.7-0.6q-10.3-0.3-20.7-0.7c0-8.1 0-15.2 0-22.2q-0.5 0.5-1.1 1z"/>
	<path class="s1" d="m537.8 371.7c7.7 7.2 15.4 14.4 23.2 22.2-10.5 22.4-21 44.1-31.6 65.9-1.9 3.9-3.6 8-5.8 12.2-3.4 6.5-6.6 12.8-9.7 19.2-3.4 7.1-6.7 14.4-10.4 21.7-1.5 2.9-2.6 5.7-4 8.7-3.7 7.3-7.2 14.4-10.8 21.6-0.4 0.7-0.5 1.2-0.8 2.1-0.1 0.7-0.1 1.2-0.5 1.7-6.9 13.6-13.5 27-20.2 40.4 9.8 10.6 19.5 21.1 29.2 31.5 6.1 6.5 12.4 12.8 18.6 19.1 0 0-0.1 0-0.2 0.2 0.1 0.4 0.2 0.6 0.3 1.1 0.4 11.3 0.6 22.1 0.6 32.8-1.8-0.9-3.3-1.6-4.6-2.6-17.9-13.6-35.8-27.3-53.7-40.8-16.8-12.7-33.7-25.2-50.5-37.8-18.6-14.1-37.2-28.2-55.7-42.4-7.3-5.6-14.4-11.6-21.5-17.8 0.4-12.2 0.9-23.9 1.3-36 0.4-2.9 0.4-5.5 1.2-7.8 2.5-6.8 5.4-13.5 8-20.4 4.6-12.6 9.1-25.2 13.9-38.1 4.7-11.1 9.4-22 13.8-32.9 2.2-5.4 4.1-11 6.3-16.6 0.4-0.4 0.6-0.7 1-1.2 6.7-15.6 13.2-30.9 19.6-46.3 1.8-4.5 3.5-9 5.6-13.5 10.6 5.9 20.9 11.9 31 18.2-9 21.9-17.9 43.4-26.7 64.9-1.8 4.3-3.1 8.6-5 13.1-4.6 9.5-9 18.8-13.3 28.1-1.3 2.8 0.7 3.8 2.7 4.9 25.3 14.1 50.5 28.2 75.7 42.3 3 1.7 6 3.2 9.6 5.1 5.1-10.1 9.8-19.7 14.9-29.6 0.4-0.7 0.5-1.2 0.8-1.7 12-24.5 24.1-49 36.2-73.5 3-6.1 6.4-12 9.9-17.9 0.7 0 1.2 0 1.6-0.1zm-157.3 98.3c-9.5 18.6-19 37.3-28.9 56.6 27.6 17.6 56.3 32.4 84.9 48.5 10.7-20.8 21.2-41.4 31.9-62.3-9.3-5.2-18.2-10.1-27.1-14.9-18.4-10.2-36.9-20.3-55.4-30.5-2.9-1.6-4.2-0.7-5.4 2.6z"/>
	<path class="s2" d="m716.8 818.1c9-12.5 18-25.1 27.1-37.6 7.4-10 14.8-20 22.5-30.4 16.5 13.5 33.3 26.1 48.7 40.2 20.1 18.4 27.3 42.6 27.1 69.3-0.1 13.1-3.7 25.4-9.2 37.2-1.6 3.2-2 6.8-3.4 10.7-1.7 0.2-3-0.2-4.3-0.2-7.3 0.5-15.3-1.9-21.2 5.1-5.4 6.4-11.4 12.5-16.9 18.9-2.5 3-5.3 3.9-9.1 3.8-14-0.2-28 0.1-42-0.1-4.2-0.1-7.2 1-9.9 4.3-1.2 1.4-3.5 2.5-5.4 2.6-5.3 0.3-10.6 0-16-0.1q-21.2-16.8-42.5-33.5c-3.2-2.5-6.3-5.1-9.9-8 13.8-17.6 27.6-35.3 42.1-53.3 0.8-0.5 1.1-0.8 1.4-1.2 0 0-0.1 0.1 0.1 0 0.4-0.4 0.6-0.8 0.7-1.1 0 0-0.3 0 0.1 0 1.8 0.8 3.4 1.4 4.7 2.3 10.7 7.9 21.3 15.8 32.3 23.9 6.5-8 12.9-15.9 19.5-24.1-12.5-9.3-24.5-18.2-36.5-27.3 0-0.7 0-1.1 0-1.4z"/>
	<path class="s3" d="m538.1 371.5c-0.7 0.3-1.2 0.3-2 0-8.7-3.2-16.9-6-25.2-8.6-0.8-0.3-1.9 0.3-2.9 0.1-1.9-1.5-3.8-2.6-5.9-3.9 3.6-8.4 7.2-16.8 11-25.5-13.8-5.1-27.3-10.1-40.9-15.1 4.2-13.8 8.2-27.3 12.4-40.7 1.3-4.1 1.3-6.5-3.7-7.9-6.8-1.9-13.2-4.9-19-7.1-0.7 0.4-1.6 0.9-2.4 1-0.5-1.5-1-2.6-1.5-4.1 0-0.4-0.1-0.6 0-1.1 0.5-2.1 0.9-3.8 1.1-5.6 0 0 0 0.2 0.3-0.1 3.5-12.2 6.7-24.3 9.8-36.4 0 0-0.1 0.1 0.2-0.1 1-2.2 1.6-4.3 2.3-6.3 0.1 0 0.3-0.2 0.7-0.2 1.1 0.2 1.7 0.3 2.5 0.4 0 0 0-0.1 0.1 0.2 9.4 3.4 18.7 6.5 28 9.5 0 0-0.1 0 0 0.4-0.1 1.7-0.4 3.1-0.8 4.9-1.3 4.9-2.3 9.3-3.5 13.8-0.5 2-0.9 4 2.4 4.3 9.1 2.6 18 4.8 27.4 7.2 1.7-5.8 3.3-11.1 4.8-16.5 0 0-0.1 0.1 0.2-0.1 3.1-8.1 5.8-16 8.5-24 0 0 0 0 0.4-0.1 1.5 0.1 2.6 0.3 3.8 0.6 31.2 9.2 62.4 18.4 93.8 27.7 0.1 0.2 0.1 0.6 0.1 0.6-2.3 8.8-4.5 17.7-7 26.4-3.6 12.6-7.4 25.1-11.3 38.1 8.3 2.3 16.2 4.6 24.5 6.9-3.8 10.9-7.4 21.4-11.1 32.5-10.3-2.6-20.2-5.1-31-7.8-5.9 16.6-11.9 33.2-17.9 50.2-16.1-4.6-32-9.2-48.2-13.6zm39.7-91.2c-1 2.7-2 5.5-3.1 8.5 9.8 3 18.9 5.7 28.4 8.6 3.8-10.4 7.5-20.3 11.2-30.5-9.6-3.3-18.7-6.3-27.9-9.4-3 7.8-5.7 14.9-8.6 22.8z"/>
	<path class="s4" d="m640.5 238.9c-0.4-0.1-0.4-0.5-0.2-0.7 0.3-0.5 0.5-0.7 0.7-0.9-0.1-0.1-0.2-0.2-0.3-0.2-11.3-3.4-22.6-6.7-33.9-10-20.4-6.1-40.7-12.2-61.1-18.2-1-0.3-2.5 0.7-3.7 1.1 0 0 0 0-0.4 0.1-3 8-5.7 16-8.4 24.1 0 0 0.1-0.1-0.2 0-2.2 4.9-4 9.6-6 14.5-5.8-1.4-11.7-3-17.7-4.4-2.7-0.7-5.5-0.8-8.3-1.2-3.2 0-2.8-2-2.3-4 1.2-4.5 2.2-8.9 3.8-13.8 1.7-2.1 4.4-3.7 0.4-5.3 0 0 0.1 0-0.1-0.3-9.4-3.4-18.7-6.4-27.9-9.5 0 0 0 0.1-0.1-0.2-1-0.2-1.9-0.2-2.8-0.1 0 0-0.2 0.2-0.7 0.3-1.1 2.2-1.7 4.3-2.2 6.4 0 0 0.1-0.1-0.2 0.2-1.6 4.5-3.1 8.7-4.2 12.9-2 7.8-3.8 15.6-5.6 23.5 0 0 0-0.2-0.3 0-0.4 2-0.7 3.9-0.9 5.8 0 0.1 0.1 0.3 0.1 1.2-1 5.1-2.2 9.5-3.1 13.9-0.6 2.6-0.7 5.2-1 8.2-2.9 9.9-5.8 19.4-9.1 28.8-0.5 0-0.7-0.1-1.1-0.4-8.2-2.8-16.3-5.4-24.2-8.1-4.2-1.4-8.3-3.1-12.4-4.7-3.3-1.7-6.7-3.5-10.2-5.4 2.3-8.6 4.7-17.2 7-26.5-2.4-1.8-4.6-3.2-7-4-6.5-2.1-13.1-4.1-19.8-6.1 0.5-2 0.9-3.2 1.2-4.5q2.9-11.2 5.7-22.5c2-7 3.9-14.1 6.4-21.6 2.8-9.1 5.2-17.7 7.7-26.4 0.1 0 0 0.1-0.3 0.1-0.5 0-0.6 0-0.8 0-11.2-3.4-22.5-6.9-34.2-10.5 0.4-1.8 0.9-3.6 1.8-5.5 1.1-1.3 2-2.5 2.4-3.9 2.5-8.2 4.9-16.3 7.5-24.9 7.7 2.4 15.1 4.7 22.5 6.9 1.5 0.4 3.3 0 5 0 0 0 0.4-0.2 1-0.1 51.4 15 102.2 30 153.1 44.8 29.1 8.5 58.3 16.8 87.5 25.3 9.5 2.7 18.9 5.9 28.4 9.3-0.6 4.2-1.3 8-1.9 11.8 0 0 0 0.4-0.4 0.8-1.4 3.5-2.4 6.6-3.5 9.8-1.7-0.5-3.1-1.1-4.5-1.4-4.5-0.9-9.1-1.7-13.7-2.5-2.4-0.7-4.7-1.3-7.5-2z"/>
	<path class="s5" d="m173 834q10.8-15.5 21.6-31 14.2-20.4 28.3-40.8c2.2-3.2 4.2-6.5 6.7-9.3 9.4-11.1 11.8-25.1 16.2-38.2 6.1-18.4 11.8-36.9 17.5-55.4 5.9-19 11.8-38.1 17.7-57 1.4-4.6 3-9.1 4.8-14.3 3.3 2.5 6.6 4.8 9.9 7.2 16.5 12.4 32.9 25.1 49.6 37.3 3.9 2.8 5.5 5.2 2.9 9.6-1.1 1.8-1.5 4.1-2.5 6.6-0.5 0.7-0.6 1-0.7 1.3 0 0 0 0-0.3 0.1-1.5 2.3-2.9 4.5-3.6 6.9-1.8 5.7-3.2 11.5-4.8 17.2 0 0 0.1 0-0.3 0.1-2.5 7-4.6 14-6.7 20.9 0 0 0-0.1-0.3 0-0.5 1.1-0.7 2.1-0.9 3 0 0 0-0.1-0.3 0-0.4 1.1-0.5 2-0.7 3 0 0 0-0.2-0.3 0-0.4 1.1-0.5 2-0.7 3 0 0 0-0.2-0.3 0-0.4 1.1-0.5 2-0.7 3 0 0 0-0.1-0.3 0-0.4 1.1-0.5 2-0.7 3 0 0 0-0.2-0.3 0-0.4 1.1-0.5 2-0.7 3 0 0 0-0.2-0.3 0-0.4 1.1-0.5 2-0.7 3 0 0 0-0.2-0.3 0-3.3 8.8-6.4 17.4-9.4 26.1-0.3 0.8 0.3 1.8 0.5 2.7-2 4.3-3.3 9.1-6 12.9-24.8 35.3-49.8 70.4-75.2 105.8-14.4-6.6-28.2-13.4-41.9-20.4-5.7-2.9-11.2-6.2-16.8-9.3z"/>
	<path class="s6" d="m400 317.8c-1.7 4.6-3.4 9.1-5.2 13.6-6.4 15.4-12.9 30.7-19.7 46-3.9-3.6-7.3-7.2-10.8-10.6q-14.2-13.7-28.4-27.4c-0.9-0.9-2-1.6-3.4-2.7-12.5 11.3-24.9 22.3-37.1 33.5-0.7 0.7-1.1 3.2-0.6 3.8 5.9 6.5 11.9 12.8 18.4 19.6 7-7.1 13.6-13.6 20-20.4 2.4-2.5 4.2-2.5 6.6 0 5.7 6 11.8 11.7 17.6 17.7 2.2 2.3 4 2.6 6.2 0.1 3.4-4.1 6.9-8 10.4-12-2 5.5-3.9 11.1-6.1 16.5-4.4 10.9-9.1 21.8-14.2 32.9-6.4 1.8-12.1 3.1-17.8 4.5-9.7 2.4-19.4 4.7-29.4 7-0.8-1.1-1.2-2.1-1.6-3 0 0-0.1 0 0.2-0.1 0.7-1.4 1.1-2.8 1.4-4.1 0 0 0-0.1 0.3-0.1 0.4-0.6 0.5-1.3 0.6-1.9 0-0.1 0-0.3 0.4-0.2 1.3-2.5 2.1-5.1 3-7.7 0.1 0.1-0.1 0.1 0.3 0 0.7-1.4 1.1-2.8 1.4-4.1 0 0 0-0.1 0.3-0.1 0.6-1 0.8-1.9 1-2.7 0 0-0.1 0 0.3-0.1 0.9-1.7 1.3-3.3 1.8-4.9 0 0.1 0 0 0.2-0.1 0.3-0.4 0.2-0.8 0.2-1.2 0-0.1 0.1-0.3 0.4-0.2 1.3-2.5 2.2-5 3.2-7.5 0 0-0.1 0 0.2-0.1 0.8-1.4 1.2-2.7 1.7-4 0 0.1-0.1 0 0.1 0 0.3-0.1 0.4-0.1 0.6-0.2-0.2-0.2-0.4-0.4-0.6-0.9-8.9 8.8-17.7 17.8-26.3 26.7-1.7-1.3-2.6-2-3.6-3-11.7-12.8-23.3-25.3-35-38.1-7.3-8.3-14.5-16.3-21.7-24.3-5.5-6-10.9-12.1-16.7-18.5 9.4-8.4 18.8-16.6 28.5-25.1 3.3 4 6.4 7.8 9.6 11.9 26.3-19.6 52.4-39.2 78.9-59 21.4 16 42.7 32 64.3 48.6 0.1 1.1 0.1 1.5 0.1 1.9z"/>
	<path class="s7" d="m672 221.9c-9.5-2.9-18.9-6.1-28.4-8.8-29.2-8.5-58.4-16.8-87.5-25.3-50.9-14.8-101.7-29.8-152.8-44.8 1.9-8.2 4.3-16.3 6.5-24.4 0.8-3 2-3.9 5.3-2.9 7.4 2.5 14.9 4.7 22.4 6.7 2.1 0.6 4.3 0.4 7.1 0.7 32.2 9.4 63.9 18.7 95.5 27.9 0.9-2.2 1.7-4 2.4-5.8 15.9 4.4 31.4 8.7 46.9 13.1 20.9 5.8 41.8 11.7 63 17.8 2 0.8 3.9 1.3 5.7 1.8 0 0-0.1 0 0 0.3 7.4 2.5 14.7 4.6 22 6.7 0 0-0.1 0 0.1 0.3 2.5 0.7 4.7 1.2 6.9 1.7 0 0-0.1 0 0.1 0.3 8.8 3 17.4 5.7 26.3 8.5-0.8 2.3-1.7 4.7-2.3 7-2.1 8.3-4.1 16.7-6.1 25-2.2 0.3-4.5 1.3-6.4 0.8-8-1.9-15.9-4.3-24.6-6.5-1.2 0-1.6 0-2.1-0.1z"/>
	<path class="s7" d="m637.8 65c4.9 1.3 9.9 2.6 15.1 4-3 11.3-5.9 22.6-9.1 34.5 10.8 3.3 21.5 6.5 32.5 9.8-3.2 10.9-6.3 21.7-10 32.5-23.2-6.6-46-13.2-68.7-19.8-29.2-8.4-58.3-16.7-87.4-25.2-7.8-2.2-15.4-4.8-23.3-7.3 3.1-10.8 6.1-21.2 9.5-31.5 10.9 2.7 21.3 5.5 32.1 8.3 2.3-9 4.4-17.2 6.5-25.7 0.4-1.4 0.7-2.5 1.2-3.8 0.4-0.8 0.5-1.4 0.7-2.2 0-0.2 0.1-0.7 0.5-0.6 2.9 0.2 5.3 0.5 7.8 0.7 0 0-0.1-0.1 0 0.2 1.1 0.5 2 0.8 2.9 1 0 0 0.5 0.1 0.9 0.4 10.7 3.4 21 6.6 31.3 9.5 0.8 0.3 1.8-0.4 2.7-0.7 5.7 1.6 11.5 3.2 17.7 5.3 5.5 1.8 10.4 3.2 15.4 4.5 0 0-0.1 0 0.1 0.3 7.3 2.1 14.4 4 21.6 5.8z"/>
	<path class="s3" d="m257.1 382.6c11.6 12.5 23.2 25 34.9 38.3 0.2 11.3 0.1 21.7 0.4 32.1 0.1 2 1.4 4 2.4 6.3 12.2 12.2 24.2 24 36.2 35.8-0.4 11.7-0.9 23.4-1.7 35.5-8.4-5.8-16.5-12.1-25.1-18.7 0 4.7 0 8.4-0.1 12.7-0.3 9.8-0.6 19.1-1.4 28.6-9.9-0.1-19.2-0.3-28.6-0.5 0-1 0-2 0.2-3.8 0.6-6.6 1.1-12.5 1.7-18.4 0.2-2.6-0.9-3.5-3.5-3.6-3.4 0-6.9-0.8-10.3-0.8-6.1 0.1-12.1 0.6-18.2 0.9q-0.2-0.1-0.4-0.2c-7.6-3.8-11-9.4-9.8-18.2 0.8-6 0.1-12.2 0.2-19.1 0.2-1.1 0.3-1.3 0.5-1.6 0.2-0.5 0.1-0.7-0.3-1.3 0-13.5 0.1-26.6 0.3-39.7 0.2-0.5 0.1-0.7-0.4-1.1-0.1-0.2-0.2-0.7-0.2-0.7 0-10.6 0-21.2 0-32.7 0.6-2 0.8-3.4 1.6-4.3 6.1-6.9 12.4-13.7 18.5-20.6 1.2-1.5 2.1-3.3 3.1-4.9z"/>
	<path class="s8" d="m436.1 932c0.3-7.7 0.6-15.4 1.4-23.7 0.8-1.4 1.4-2.2 1.5-3.1 0.4-10.3 0.8-20.6 1-30.9 0.2-6.3 0-6.3 6.7-6.3 29.8 0 59.6 0 89.4 0 1.9 0 3.9-0.5 6.1-0.9 0.4-0.1 0.6-0.2 0.8-0.2 0 0.1 0 0.2 0 0.6 0.3 9.8 0.7 19.2 0.5 28.5-17.9-0.3-35.3-0.6-52.7-1.1-3.7-0.1-5 1-4.9 4.8 0.3 8.5 0.3 17 0 25.5-0.2 4.2 1.5 4.9 5.2 4.9 36.3-0.2 72.6-0.1 108.9 0.3 0 8.2-0.3 15.8 0.1 23.5 0.2 4.8-1.5 6.2-6.3 6.2-50.7-0.2-101.5-0.1-152.2-0.1-1.8 0-3.5-0.2-5.7-0.3 0.3-2.8 0.7-4.9 0.7-7-0.1-6.9-0.3-13.8-0.5-20.7z"/>
	<path class="s9" d="m523.9 471.8c1.9-4 3.6-8.1 5.5-12 10.6-21.8 21.1-43.5 31.7-65.6 1.1 4.9 2.1 10 2.8 15.3q1.9 13.4 3.4 26.9c1 8.9 1.8 17.9 2.7 26.9 0.2 1.1 0.7 2.2 1.1 3.6 0 0.4 0 0.4 0 0.4 0.2 0.9 0.5 1.8 0.4 3.3-0.1 2.8 0.2 5.1 0.4 7.4 0 0 0.1 0.4 0.1 1.1 1.4 12.6 2.7 24.5 4.1 36.4 0.1 0.6 1.1 1 1.7 1.5 0.8 5.7 1.6 11.4 2.3 17 6 0 11.6 0 17.6 0.5 1.4 8.3 2.2 16.2 3.4 23.9 0.7 4.2 2.1 8.3-2.1 11.4-6.8 0.9-13.6 1.8-21.2 2.9-12.4 1.6-24.1 3-36.2 4.4-8.5 0.9-16.6 1.8-25 2.5-5.8 0-11.5-0.3-16.9 0.9-4.1 0.8-5-0.8-5.6-3.9-0.7-4.3-1.2-8.8-2.1-13.1-1.2-5.5-2.7-11-4.2-16.5-0.1 0-0.1-0.1-0.1-0.1 0.1-0.4 0.1-0.9 0.7-1.6 2.7-0.3 4.9-0.1 7-0.4 2.5-0.4 5-1.3 7.6-1.9 0 0-0.1 0 0.2-0.1 0.8-0.3 1.3-0.6 2.2-0.9 6.5-1 12.5-2.1 18.6-3 7-1.1 7.2-1.3 6.1-8.5-0.2-1.3 0-2.7-0.1-4-0.7-7.9-1.4-15.8-2.3-23.7-1.1-10.3-2.5-20.7-3.8-31z"/>
	<path class="s4" d="m496 62c-3 10.3-6 20.7-9.1 31.5 7.9 2.5 15.5 5.1 23.3 7.3 29.1 8.5 58.2 16.8 87.4 25.2 22.7 6.6 45.5 13.2 68.5 20.1-0.8 3.6-1.8 6.9-3.3 10.8-2.3 6.4-4.2 12.3-6 18-1.6 0.3-3.1 0.7-4.7 1q-31.3-8.8-62.7-17.6c-15.5-4.4-31-8.7-46.9-13.1-0.7 1.8-1.5 3.6-2.4 5.8-31.6-9.2-63.3-18.5-95.2-28.1 0.8-3.6 1.8-6.9 3.3-10.8 3.6-10.1 6.8-19.6 9.8-29.2 3-9.6 5.8-19.2 8.7-28.9 10.1 2.7 19.7 5.3 29.3 7.9 0 0.1 0 0.1 0 0.1z"/>
	<path class="s8" d="m125 851.3c5.3 2 10.5 4.2 15.6 6.5 3.2 1.4 6.3 2.8 10.1 4.6 1.1 0.7 1.5 1.2 2.1 1.5 19.8 9.7 39.6 19.4 59.4 29.2 1.4 0.7 2.6 1.9 3.9 2.9-0.3 6-0.6 12.1-1.3 18.3-0.5-3.1-0.9-6.4-0.7-9.7 0.1-3.5-1.4-4.7-4.8-4.6-14.7 0.1-29.3 0.1-44-0.1-3.7 0-4.4 1.4-4.3 4.7 0.1 6.9 0.2 13.7-0.1 20.5-0.2 4.1 1.4 5 5.2 5 27.9-0.2 55.9-0.1 83.9 0.3-0.3 10.1-0.6 19.6-0.8 29.6-2.9 0-4.7 0-6.5 0-27.3 0-54.6 0-81.9 0-2 0-3.9 0.6-5.8 0.9-0.7 0-1.5 0.1-2.7-0.3-2.6-0.8-4.7-1.2-6.8-1.5q-23.2-17.7-46.3-35.4c-3.2-2.5-6.5-5-10-7.6 12-21.7 23.9-43.1 35.8-64.8z"/>
	<path class="s10" d="m704.9 941.9c5.3 0 10.6 0.3 15.9 0 1.9-0.1 4.2-1.2 5.4-2.6 2.7-3.3 5.7-4.4 9.9-4.3 14 0.2 28-0.1 42 0.1 3.8 0.1 6.6-0.8 9.1-3.8 5.5-6.4 11.5-12.5 16.9-18.9 5.9-7 13.9-4.6 21.2-5.1 1.3 0 2.6 0.4 4.4 0.6 0.4 0 0.9 0.1 1.4 0.4 15.2 0.5 29.9 0.5 44.5 0.6 1.8 1.7 3.5 3.3 5.4 5.6 0.6 0.9 1 1.1 1.3 1.4 0 0-0.2 0-0.1 0.2 0.4 0.4 0.8 0.5 1.1 0.7 0 0-0.2 0.1-0.1 0.3 0.4 0.4 0.8 0.6 1.1 0.7 0 0-0.2 0.1-0.1 0.3 0.4 0.4 0.8 0.6 1.1 0.8 0 0-0.1 0-0.2 0.3 1.1 1.1 2.1 1.8 3.2 2.6 0 0-0.2 0.1-0.1 0.3 0.4 0.4 0.7 0.6 1.1 0.8 0 0-0.2 0-0.1 0.2 0.4 0.4 0.7 0.6 1 0.8 0 0-0.1 0 0 0.2 0.4 0.4 0.7 0.6 1 0.8 0 0-0.1 0 0 0.2 0.4 0.4 0.7 0.6 1 0.8 0 0-0.1 0 0 0.2 0.4 0.4 0.7 0.6 1 0.8 0 0-0.1 0 0 0.2 0.4 0.4 0.7 0.6 1 0.8 0 0-0.1 0 0 0.2 0.4 0.4 0.7 0.6 1 0.8 0.4 0 0.6 0.2 0.9 0.9 0.5 0.7 0.8 0.9 1.1 1.1 0.3 0 0.6 0.2 0.9 1 0.5 0.6 0.8 0.9 1 1.1 0.4 0 0.6 0.1 1 0.9 0.4 0.7 0.7 0.9 1 1.1 0 0-0.1 0 0 0.3 0.8 0.9 1.6 1.5 2.4 2.1 0 0 0.2 0.1 0.1 0.3 0 0.2 0.2 0.2 0.4 0.2 6.7 6.7 13.3 13.3 19.8 20.6-2.2 0.9-4.3 1.4-6.4 1.4-78.4 0.1-156.8 0.1-235.2 0.1-2 0-4.1 0.6-6.2 0.9-2 0.1-4.1 0.1-6.9-0.2-4.6-0.5-8.6-0.4-12.5-0.8-1.3-0.1-2.5-1.3-3.7-2.1 0 0 0 0.1 0.2 0 0.4-0.4 0.7-0.6 0.9-0.9 0-0.4 0.1-0.6 0.9-0.9 0.7-0.4 0.9-0.7 1.1-1 4.3-4 8.6-7.9 13.7-12 10.6 0 20.4 0 30.2-0.1 1.7 0 3.4-0.6 5.1-1 0 0-0.1 0.1-0.1 0z"/>
	<path class="s3" d="m542 577.1c11.7-1.4 23.4-2.8 35.5-4.2 1.5 23.6 2.6 47.1 3.6 70.7 0.4 7.9 0.5 15.9 1.1 23.8 0.1 1.9 1.6 3.7 2.6 5.4 0.5 0.8 1.5 1.3 2.3 2 11.8 10.9 11.9 10.9 12.6 29.1 0.4 8.5 0.1 17-0.3 25.8-4.1-2.4-7.8-5.2-12-8.3-6.9 8.2-13.7 16.3-20.5 24.4-2.3 1.8-4.6 3.5-6.7 5.5-2.2 2.2-4.5 3.1-7.8 1.2-1.2-0.8-1.8-1.2-2.4-1.7-2.6-2.1-5.2-4.1-7.6-6.5 3.3-3.4 6.2-6.7 9.5-9.6 6.4-5.8 10.9-12.4 9.1-22 0-2.8-0.1-5.1 0-7.9 1-9.1 1.9-17.8 2.6-26.5 0-0.8-1.2-1.8-2-2.5-5.1-3.9-10.4-7.7-15.4-11.8-1.5-1.3-3-3.7-3.1-5.6-0.5-13.4-0.9-26.9-1-40.3-0.2-13.7-0.1-27.3-0.1-41z"/>
	<path class="s11" d="m567.2 746c6.5-8.3 13.3-16.4 20.2-24.6 4.2 3.1 7.9 5.9 11.9 8.8 17.6 13.4 34.8 26.7 52.2 39.9 20.2 15.4 40.6 30.7 60.9 46 1.1 0.8 2.5 1.4 4.1 2.1 0.3 0.2 0.3 0.6 0 1.4-1.7 1.5-3.3 2.5-4.4 3.8-5.2 6.6-10.2 13.2-15.3 19.8-20.5-15.3-41-30.6-61.5-46-22.6-17-45.2-34-68.1-51.2z"/>
	<path class="s12" d="m600 930c-36.3 0-72.6-0.1-108.9 0.1-3.7 0-5.4-0.7-5.2-4.9 0.3-8.5 0.3-17 0-25.5-0.1-3.8 1.2-4.9 4.9-4.8 17.4 0.5 34.8 0.8 53 1.1 1.1 0 1.4 0 1.8 0.1 0 0 0.2-0.2 0.4 0.3 1.2 0.9 2.2 1.5 3.2 1.6 10.2 0.4 20.4 0.8 30.6 1 4.2 0 7.7 0.4 8.5 5.5 0 0.4 1.4 0.7 2.2 1 0 0 0 0.1-0.2 0.5 0.9 2.2 2 4.1 3 6 1.6 3.1 3.1 6.2 4.4 9.8 0.1 0.7 0.3 0.9 0.5 1.1 0 0-0.1 0-0.1 0.4 0.4 1 0.9 1.7 1.4 2.5 0 0-0.1 0.1-0.2 0.3 0.3 0.8 0.7 1.2 1.2 1.7 0 0-0.2 0.1-0.3 0.4-0.2 0.8-0.2 1.3-0.2 1.8z"/>
	<path class="s13" d="m227.2 438.9c0.3 0 0.6 0.2 0.9 0.9 0.5 0.7 0.8 0.9 1.1 1.1 0 0-0.2 0.1 0 0.3 0.3 0.4 0.6 0.6 0.9 0.8 0 0-0.1 0 0 0.2 0.5 0.4 0.7 0.6 1 0.7 0.4 0.1 0.6 0.2 0.9 1.2 0.4 1.4 0.8 2.2 0.8 3 0.1 12.2 0.2 24.4 0.1 36.7 0 0.7-1.3 1.5-2 2.3 0 0 0.1-0.1 0-0.3-0.4-0.4-0.7-0.6-1-0.8-1.2-1.1-2.5-2.2-3.8-3.9-0.5-0.7-0.8-0.9-1.1-1.1-1.6-1.4-3.1-2.9-4.6-4.9-0.3-0.5-0.6-0.5-0.8-0.6 0 0 0-0.1 0-0.4-0.3-0.5-0.7-0.6-1-0.8 0 0 0.1 0 0.1-0.3-0.4-0.4-0.7-0.6-1.1-0.7 0 0 0.2-0.1 0.1-0.3-0.4-0.4-0.7-0.6-1.1-0.7 0 0 0.2-0.1 0.1-0.3-0.4-0.4-0.7-0.6-1.1-0.8 0 0 0.2 0 0.2-0.3-1.4-1.4-2.7-2.5-4.1-3.7 0 0 0.2-0.1 0.2-0.4-0.7-0.7-1.4-1.2-2.1-1.6 0 0 0.1-0.1 0-0.3-0.4-0.4-0.7-0.6-1.1-0.8 0 0 0.2 0 0.1-0.2-0.4-0.4-0.7-0.6-1-0.8 0 0 0.1 0 0-0.2-0.4-0.4-0.7-0.6-1.1-0.8-0.3 0-0.5-0.1-0.8-0.9-0.5-0.7-0.8-0.9-1.1-1.1 0 0 0.1 0 0-0.2-0.4-0.4-0.7-0.6-1-0.8 0 0 0.1 0 0-0.2-0.4-0.4-0.7-0.6-1-0.8 0 0 0.1 0 0-0.2-0.4-0.4-0.7-0.6-1-0.8-0.3 0-0.6-0.2-0.9-1-0.4-0.6-0.7-0.9-1-1.1 0 0 0.1 0 0-0.2-0.4-0.4-0.7-0.6-1-0.8 0 0 0.1 0 0-0.3-1-1.1-2-1.9-3-2.7 0 0 0.1 0 0-0.2-0.4-0.4-0.7-0.6-1-0.8 0 0 0.1 0 0.1-0.2-0.4-0.4-0.7-0.6-1-0.7-4.8-4.9-9.6-9.8-14.5-15-0.3-0.6-0.5-0.7-0.8-0.9 0 0 0.1 0 0.1-0.3-0.4-0.4-0.7-0.6-1.1-0.8 0 0 0.2 0 0.1-0.2-0.4-0.4-0.7-0.6-1.1-0.8 0 0 0.2 0 0.1-0.2-0.4-0.4-0.7-0.6-1-0.8 0 0 0.1 0 0-0.2-0.4-0.4-0.7-0.6-1-0.8 0 0 0.1 0 0-0.2-0.4-0.4-0.7-0.6-1-0.8 0 0 0.1 0 0-0.2-0.4-0.4-0.7-0.6-1.1-0.8-0.3 0-0.5-0.1-0.8-0.9-0.5-0.7-0.8-0.9-1.1-1.1 0 0 0.1 0 0-0.2-0.4-0.4-0.7-0.6-1-0.8 0 0 0.1 0 0-0.2-0.4-0.4-0.7-0.6-1-0.8 0 0 0.1 0 0-0.2-0.4-0.4-0.7-0.6-1-0.8 0 0 0.2-0.1 0-0.3-0.4-0.3-0.7-0.5-1-0.7-0.5-0.5-1.1-1-1.9-1.9-0.4-0.8-0.7-1-1-1.2 0 0 0.1 0 0.1-0.2-0.7-0.8-1.4-1.3-2-1.7-5.9-5.9-11.7-11.8-18.8-18.9 2-1.4 3.9-2.7 6.3-4.2 0.9-0.6 1.1-0.9 1.4-1.3 0 0 0 0.2 0.2 0.1 0.4-0.4 0.6-0.7 0.7-1.1 0 0 0.1 0.2 0.3 0.1 0.4-0.4 0.6-0.7 0.8-1.1 0 0 0 0.2 0.2 0.1 0.4-0.4 0.6-0.7 0.8-1 0 0 0 0.1 0.2 0 0.4-0.4 0.6-0.7 0.8-1 0 0 0 0.1 0.2 0 0.4-0.4 0.6-0.7 0.8-1.1 0-0.3 0.1-0.5 0.9-0.8 0.7-0.5 0.9-0.8 1.1-1.1 0 0 0 0.1 0.2 0 0.4-0.4 0.6-0.7 0.8-1 0 0 0 0.1 0.2 0 0.4-0.4 0.6-0.7 0.8-1 0 0 0.1 0.2 0.3 0 0.3-0.4 0.5-0.7 0.7-1 0 0 0.1 0.2 0.3 0 0.3-0.4 0.5-0.7 0.7-1 0.1-0.3 0.2-0.6 1-0.9 0.6-0.4 0.9-0.7 1.1-1 0 0 0 0.1 0.3 0.1 1.1-0.3 1.9-0.7 2.7-1 2.3 2.3 4.6 4.5 7 7.4 0.6 0.9 1 1.2 1.3 1.5 0 0-0.2-0.1-0.1 0.2 0.4 0.4 0.8 0.5 1.1 0.7 0 0-0.2 0.1-0.1 0.3 0.4 0.4 0.8 0.5 1.1 0.7 0 0-0.2 0.1-0.1 0.3 0.4 0.4 0.8 0.6 1.1 0.8 0 0-0.2 0-0.1 0.2 0.4 0.4 0.8 0.6 1.1 0.8 0 0-0.2 0-0.1 0.2 0.4 0.4 0.7 0.6 1.1 0.8 0 0-0.2 0-0.1 0.2 0.4 0.4 0.7 0.6 1.1 0.7 0 0-0.2 0.1-0.1 0.3 0.4 0.4 0.7 0.6 1.1 0.8 0 0-0.2 0-0.2 0.3 0.7 0.7 1.4 1.2 2.1 1.6 0 0-0.1 0.1 0 0.3 0.4 0.4 0.7 0.6 1 0.8 0 0-0.1 0 0 0.2 0.4 0.4 0.7 0.6 1 0.8 0 0-0.1 0 0 0.2 0.4 0.4 0.7 0.6 1.1 0.8 0.3 0 0.5 0.2 0.8 0.9 0.5 0.7 0.8 0.9 1.1 1.1 0.6 0.5 1.1 0.9 1.9 1.9 0.5 0.7 0.7 0.9 1 1.2 0 0-0.1 0 0 0.2 0.5 0.4 0.7 0.6 1 0.7 0 0-0.1 0.1 0.1 0.3 0.4 0.4 0.7 0.6 0.9 0.7 0.6 0.5 1.2 1 2 1.9 0.4 0.8 0.7 1 1 1.2 0 0-0.1 0 0 0.2 0.4 0.4 0.7 0.6 1 0.8 0.6 0.4 1.2 0.9 1.8 1.9 0.5 0.7 0.8 0.9 1.1 1 6.6 6.7 13.2 13.4 20.1 20.7 0.5 0.8 0.9 1 1.2 1.3 0 0-0.2 0-0.1 0.2 0.4 0.4 0.7 0.6 1.1 0.8 0 0-0.2 0-0.1 0.2 0.4 0.4 0.7 0.6 1 0.8 0 0-0.1 0 0 0.2 0.4 0.4 0.7 0.6 1 0.8 0 0-0.1 0 0 0.2 0.4 0.4 0.7 0.6 1 0.8 0 0-0.1 0 0 0.2 0.4 0.4 0.7 0.6 1 0.8z"/>
	<path class="s14" d="m216.4 895.9c-1.6-0.9-2.8-2.1-4.2-2.8-19.8-9.8-39.6-19.5-59.4-29.2-0.6-0.3-1-0.8-1.8-1.5 0.9-1.9 2.2-3.4 3-5.1 4.2-8.3 8.2-16.7 12.3-25.1 2.2 0.7 4.1 1.2 6.3 1.8 6 3.1 11.5 6.4 17.2 9.3 13.7 7 27.5 13.8 41.7 20.6 2.9 1.8 5.5 3.5 8.4 5.4-6 9.4-12 18.8-18.2 28.4-1.7-0.6-3.3-1.3-5.3-1.8z"/>
	<path class="s12" d="m250 930c-28 0-56-0.1-83.9 0.1-3.8 0-5.4-0.9-5.2-5 0.3-6.8 0.2-13.6 0.1-20.5-0.1-3.3 0.6-4.7 4.3-4.7 14.7 0.2 29.3 0.2 44 0.1 3.4-0.1 4.9 1.1 4.8 4.6-0.2 3.3 0.2 6.6 0.7 10.2 0.5 0.4 0.8 0.6 1.3 1.3 8 0.6 15.5 0.7 23.1 0.8 0 0-0.2 0-0.1 0.2 0.5 0.4 0.8 0.6 1.1 0.8 0 0-0.2 0.1-0.1 0.2 0.5 0.4 0.8 0.6 1.1 0.8 0 0-0.2 0.1 0 0.2 0.4 0.4 0.7 0.6 1 0.8 0 0-0.1 0-0.1 0.2 0.4 0.4 0.6 0.6 0.8 0.8 2.6 2.2 5.2 4.3 7.6 7-0.3 1-0.4 1.5-0.5 2.1z"/>
	<path class="s15" d="m696.8 843.4c5.1-6.8 10.1-13.4 15.3-20 1.1-1.3 2.7-2.3 4.4-3.5 12.3 8.7 24.3 17.6 36.8 26.9-6.6 8.2-13 16.1-19.5 24.1-11-8.1-21.6-16-32.3-23.9-1.3-0.9-2.9-1.5-4.7-2.4-0.4-0.5-0.3-0.7 0-1.2z"/>
	<path class="s16" d="m257 382.3c-0.9 1.9-1.8 3.7-3 5.2-6.1 6.9-12.4 13.7-18.5 20.6-0.8 0.9-1 2.3-1.6 3.9-8-8-16-16.3-24.2-25 8.6-9.6 16.9-19 25.4-28.7 7.4 7.7 14.6 15.7 21.9 24z"/>
	<path class="s4" d="m535 44.9c-2.1 8.2-4.2 16.4-6.5 25.4-10.8-2.8-21.2-5.6-32.1-8.3-0.4 0-0.4 0-0.3-0.4 0.4-1.6 0.6-2.9 0.8-4.2 1.3-4.9 2.7-9.8 4.5-15.1 0.8-0.8 1.3-1.1 1.4-1.5 3.8-11.8 3.8-11.9 15.5-8.5 6.3 1.9 12.3 4.3 18.5 6.5-0.1 0.6-0.2 1.2-0.9 2.1-0.7 1.5-0.8 2.8-0.9 4z"/>
	<path class="s9" d="m400.4 317.9c-0.4-0.5-0.4-0.9-0.4-1.7 2.5-6.1 5-11.9 7.3-18 3.9 1.3 8 3 12.2 4.4 7.9 2.7 16 5.3 23.8 8.1-1.7 1.2-4 1.8-4.5 3-2.7 7.3-4.9 14.7-7.3 22-10.2-5.9-20.5-11.9-31.1-17.8z"/>
	<path class="s17" d="m600 930.4c0-0.9 0-1.4 0.2-2.3 0.6 1.3 1.5 3 1.5 4.7 0.2 9.3 0.1 18.6 0.1 28.2-55.5 0-110.9 0-167.1 0 0.4-9.3 0.9-18.7 1.4-28.5 0.2 6.4 0.4 13.3 0.5 20.2 0 2.1-0.4 4.2-0.7 7 2.2 0.1 3.9 0.3 5.7 0.3 50.7 0 101.5-0.1 152.2 0.1 4.8 0 6.5-1.4 6.3-6.2-0.4-7.7-0.1-15.3-0.1-23.5z"/>
	<path class="s16" d="m244.3 527.2c5.8-0.5 11.8-1 17.9-1.1 3.4 0 6.9 0.8 10.3 0.8 2.6 0.1 3.7 1 3.5 3.6-0.6 5.9-1.1 11.8-1.8 18.1-3.8-2.3-7.5-4.9-11.7-7.9-1.8-1.2-3.1-2.1-4.4-2.9-4.5-3.5-9-7-13.8-10.6z"/>
	<path class="s8" d="m676.5 961c1.6-0.4 3.7-1 5.7-1 78.4 0 156.8 0 235.2-0.1 2.1 0 4.2-0.5 6.5-1.1 1 0.2 1.7 0.8 3.3 2.2-84.1 0-167.2 0-250.7 0z"/>
	<path class="s17" d="m541.9 867.2c-1.9 0.3-3.9 0.8-5.8 0.8-29.8 0-59.6 0-89.4 0-6.7 0-6.5 0-6.7 6.3-0.2 10.3-0.6 20.6-1 30.9-0.1 0.9-0.7 1.7-1.5 2.7 0.2-13.6 0.8-27.3 1.4-41.3-2.1-0.2-4-0.3-5.8-0.5 0-7.1 0-14.1 0.1-21.5 0.4-0.7 0.7-1.1 1.1-1.4 0 7 0 14.1 0 22.2q10.4 0.4 20.7 0.7c7.4 0.3 14.8 0.5 23.1 0.7 12.2 0 23.6 0 35.4 0.1 9.8 0.2 19.1 0.2 28.4 0.3z"/>
	<path class="s17" d="m496.6 57.7c0.1 1-0.1 2.3-0.5 3.9-9.7-2.3-19.3-4.9-29.4-7.6-2.9 9.7-5.7 19.3-8.7 28.9-3 9.6-6.2 19.1-9.6 28.9 4.1-15.2 8.6-30.5 13.1-45.8 1.3-4.6 2.7-9.1 4.1-14.1 8.9 2.6 17.6 5.1 26.3 7.6 1.7 0.5 3.9 1.9 4.7-1.8z"/>
	<path class="s17" d="m250 930.4c0.1-1 0.2-1.5 0.6-2.2 0.3 10.7 0.3 21.6 0.3 32.8-31.8 0-63.4 0-95.4-0.1 1.4-0.3 3.3-0.9 5.3-0.9 27.3 0 54.6 0 81.9 0 1.8 0 3.6 0 6.5 0 0.2-10 0.5-19.5 0.8-29.6z"/>
	<path class="s17" d="m401.6 143c-1.3 0.1-3.1 0.5-4.6 0.1-7.4-2.2-14.8-4.5-22.5-6.9-2.6 8.6-5 16.7-7.5 24.9-0.4 1.4-1.3 2.6-2.2 3.6 2.7-10.2 5.5-20.1 8.5-30.4 9.5 2.9 18.8 5.7 28.3 8.7z"/>
	<path class="s12" d="m705.4 227.5c1.7-8.1 3.7-16.5 5.8-24.8 0.6-2.3 1.5-4.7 2.3-7-8.9-2.8-17.5-5.5-26.3-8.5 9.2 2 18.6 4.5 28.3 7-3.3 11.4-6.6 22.2-10.1 33.3z"/>
	<path class="s17" d="m383.6 229.1c-1.5 7.3-3.4 14.8-5.3 22.3-0.3 1.3-0.7 2.5-1.2 4.5 6.7 2 13.3 4 19.8 6.1 2.4 0.8 4.6 2.2 7 3.6-8.6-2.3-17.2-5.1-25.9-7.5-2.5-0.7-3.3-1-2.3-3.8 2.8-8.3 5.1-16.7 7.9-25.2z"/>
	<path class="s15" d="m453 721.4c0.6 1 1.9 2.5 1.8 3.8q-1.2 18.2-2.8 36.4c-0.6 6-1.5 12-2.5 18.2 0.7-15.5 1.8-31.3 2.9-47 0.2-3.6 0.5-7.3 0.6-11.4z"/>
	<path class="s8" d="m590.4 905.1c-0.7 0.1-2.1-0.2-2.1-0.6-0.8-5.1-4.3-5.5-8.5-5.5-10.2-0.2-20.4-0.6-30.6-1-1-0.1-2-0.7-3.1-1.5 11.3 0 22.8 0.7 34.3 0.6 5.8 0 8.8 2.3 10 8z"/>
	<path class="s17" d="m536.9 38.6c-6.3-2-12.3-4.4-18.6-6.3-11.7-3.4-11.7-3.3-15.5 8.5-0.1 0.4-0.6 0.7-1.3 1.1 0.9-4.9 2.2-9.9 3.5-15 10.8 3.1 21 6 31.6 9.4 0.4 0.8 0.4 1.2 0.4 1.6 0 0-0.1 0.5-0.1 0.7z"/>
	<path class="s0" d="m547 831q3.7 0 7.4 0c0 12 0 23.7 0 35.8-3.2 0-5.9 0-9.1 0.1-0.4 0.1-0.4 0.1-0.2-0.2 2.5-1.1 4.9-1.8 7.6-2.5 0-10.4 0-21 0-31.4-2.1-0.7-3.9-1.2-5.7-1.8q0 0 0 0z"/>
	<path class="s18" d="m549.9 784c-0.6 8.6-1.2 17.2-1.8 25.9-0.4 6.7-0.8 13.5-1.1 20.7 0 0.4 0 0.4-0.3 0.4-0.8-0.4-1.2-0.7-1.5-1.4 0.3-1.1 0.7-1.9 0.7-2.7 0.4-8.3 0.6-16.6 1.2-24.9 0.4-6 1.2-12 2.1-18 0.2 0 0.7 0 0.7 0z"/>
	<path class="s12" d="m599.4 569.9c3.8-3.2 2.4-7.3 1.7-11.5-1.2-7.7-2-15.6-3-23.8 0.6 0.3 1.6 0.9 1.7 1.7 1.5 10.8 2.8 21.5 4.1 32.8-1.3 0.3-2.7 0.6-4.5 0.8z"/>
	<path class="s19" d="m577.8 516.6c-0.6-0.1-1.6-0.5-1.7-1.1-1.4-11.9-2.7-23.8-4.1-36.2 1.4 7.6 2.7 15.6 4 23.6 0.7 4.4 1.2 8.8 1.8 13.7z"/>
	<path class="s12" d="m582.6 49c-0.5 0.4-1.5 1.1-2.3 0.8-10.3-2.9-20.6-6.1-31.1-9.4 6.5 1.3 13.2 2.8 19.8 4.6 4.5 1.1 8.9 2.5 13.6 4z"/>
	<path class="s15" d="m549.9 783.6c0 0.4-0.5 0.4-0.7-0.1-0.2-3.4-0.2-6.4-0.3-9.4 0.4-7.5 0.7-14.9 1.1-22.8 0.6 0 1.2 0.4 2 1.2-0.6 10.4-1.3 20.5-2.1 31.1z"/>
	<path class="s17" d="m648.4 241c4.2 0.7 8.8 1.5 13.3 2.4 1.4 0.3 2.8 0.9 4.5 1.4 1.1-3.2 2.1-6.3 3.4-9.6-0.3 3.5-1 7.2-1.8 11.6-6.6-1.9-12.8-3.8-19.4-5.8z"/>
	<path class="s18" d="m313 744.6c-0.3-0.5-0.9-1.5-0.6-2.3 3-8.7 6.1-17.3 9.5-26.1-2.7 9.3-5.8 18.7-8.9 28.4z"/>
	<path class="s17" d="m652.4 176.1c1.3-0.5 2.8-0.9 4.4-1.2 1.8-5.7 3.7-11.6 5.8-17.7-1.2 6.6-2.8 13.3-4.4 20.4-1.9-0.2-3.8-0.7-5.8-1.5z"/>
	<path class="s12" d="m231 486.4c0.6-1.1 1.9-1.9 1.9-2.6 0.1-12.3 0-24.5-0.1-36.7 0-0.8-0.4-1.6-0.7-2.8 0.4-0.1 0.8 0.3 1.6 0.7 0.2 0.1 0.3 0.6 0.4 1 0.1 0.5 0.3 1 0.3 1-0.1 13-0.2 26.1-0.2 39.8 0 0.7 0.2 1.2 0.2 1.2-0.1 0.2-0.2 0.4-0.4 1-1-0.5-1.9-1.4-3-2.6z"/>
	<path class="s17" d="m545.5 895.6c-0.3 0.4-0.6 0.4-1.2 0.4-0.6-9.3-1-18.7-1-28.5 0.8-0.5 1.2-0.5 1.6-0.5 0 0 0 0 0 0 0.1 9.4 0.3 18.8 0.6 28.6z"/>
	<path class="s17" d="m397 181.4c0.2-0.4 0.3-0.4 0.8-0.4 0.2 0 0.2 0 0.2 0-2.4 8.6-4.8 17.2-7.5 25.9 1.9-8.3 4.2-16.7 6.5-25.5z"/>
	<path class="s8" d="m875.3 908.6c-14.3 0.2-29 0.2-44-0.2 14.4-0.2 29-0.2 44 0.2z"/>
	<path class="s18" d="m336.6 674c1.3-5.5 2.7-11.3 4.5-17 0.7-2.4 2.1-4.6 3.6-6.9-2.3 7.9-5.1 15.8-8.1 23.9z"/>
	<path class="s12" d="m680 184.6c-7.2-1.8-14.5-3.9-21.9-6.4 7.2 1.8 14.4 3.9 21.9 6.4z"/>
	<path class="s18" d="m329.6 695c1.8-6.7 3.9-13.7 6.5-20.7-1.9 6.8-4.1 13.7-6.5 20.7z"/>
	<path class="s12" d="m637.6 64.7q-10.4-2.3-21.4-5.5 10.5 2.2 21.4 5.5z"/>
	<path class="s17" d="m704.5 941.9c-1.2 0.4-2.9 1-4.6 1-9.8 0.1-19.6 0.1-29.9 0.1 1-0.4 2.6-1 4.1-1 10-0.1 20 0 30.4-0.1z"/>
	<path class="s15" d="m256.6 542.1c-2 5.3-4.2 10.9-6.8 16.4 1.9-5.4 4.2-10.8 6.8-16.4z"/>
	<path class="s15" d="m249.2 559c-1.7 4.7-3.7 9.7-6 14.8 1.7-4.8 3.7-9.7 6-14.8z"/>
	<path class="s17" d="m238.9 916.5q-10.9 0.4-22.6-0.2 10.9-0.4 22.6 0.2z"/>
	<path class="s12" d="m615.9 58.6c-4.8-1-9.7-2.4-14.8-4.1 4.8 1 9.7 2.4 14.8 4.1z"/>
	<path class="s8" d="m652.6 958c1.5 0.6 2.7 1.8 4 1.9 3.9 0.4 7.9 0.3 12.1 0.7-6 0.3-12.3 0.3-18.5 0.3q-0.3-0.4-0.7-0.9c0.9-0.6 1.8-1.2 3.1-2z"/>
	<path class="s17" d="m672 222.4c0.5-0.4 0.9-0.4 1.8-0.4-0.8 4-2 7.9-3.4 12 0.3-3.6 1-7.4 1.6-11.6z"/>
	<path class="s4" d="m537.4 38c-0.4-0.5-0.4-0.9-0.4-1.6 2.6 0.4 5.2 1.1 8 2-2.3 0.1-4.7-0.2-7.6-0.4z"/>
	<path class="s17" d="m145.7 959.4c1.9 0 4 0.4 6.2 1.1-1.9 0-4-0.4-6.2-1.1z"/>
	<path class="s8" d="m593.3 911.7c-1-1.6-2.1-3.5-3-5.7 1.1 1.6 2 3.5 3 5.7z"/>
	<path class="s15" d="m258 538.1c1.4 0.5 2.7 1.4 4.2 2.5-1.4 0.6-3.1 0.9-5.1 1.2 0.1-1 0.4-2.2 0.9-3.7z"/>
	<path class="s19" d="m572 477.7c-0.3-2-0.6-4.3-0.5-6.6 0.4 2 0.5 4.1 0.5 6.6z"/>
	<path class="s12" d="m686.9 186.6q-3-0.3-6.7-1.5 3.1 0.3 6.7 1.5z"/>
	<path class="s12" d="m211.9 466.5c1.2 0.9 2.5 2 3.8 3.5-1.2-0.8-2.4-2-3.8-3.5z"/>
	<path class="s18" d="m347.9 651.8c1.2 0.4 2.6 1.1 4.1 2.1-1.3-0.4-2.6-1.1-4.1-2.1z"/>
	<path class="s15" d="m242.6 574.1c-0.2 1.4-0.7 3-1.6 4.7 0.2-1.4 0.8-2.9 1.6-4.7z"/>
	<path class="s12" d="m166.8 376.7c-0.6 0.6-1.4 1-2.6 1.3 0.6-0.6 1.6-1.1 2.6-1.3z"/>
	<path class="s12" d="m196.1 450.3c0.8 0.5 1.8 1.3 2.8 2.4-0.9-0.4-1.8-1.3-2.8-2.4z"/>
	<path class="s18" d="m345.3 650.1c-0.2-0.4-0.1-0.7 0.4-1 0.8 0.4 1.4 1.1 1.9 2-0.8 0-1.4-0.5-2.3-1z"/>
	<path class="s4" d="m888.1 921.5c-0.9-0.5-1.9-1.2-2.9-2.4 0.9 0.5 1.9 1.3 2.9 2.4z"/>
	<path class="s4" d="m903.4 937.1c-0.7-0.3-1.5-0.9-2.3-1.8 0.7 0.3 1.4 0.9 2.3 1.8z"/>
	<path class="s12" d="m162.1 415.3c0.5 0.2 1.2 0.7 1.8 1.5-0.5-0.2-1.1-0.7-1.8-1.5z"/>
	<path class="s18" d="m323.4 713q-0.2-1.1 0.5-2.8 0.2 1.1-0.5 2.8z"/>
	<path class="s18" d="m325.4 707q-0.2-1.1 0.5-2.8 0.2 1.1-0.5 2.8z"/>
	<path class="s12" d="m209.9 464.5c0.6 0.1 1.3 0.6 1.9 1.4-0.6-0.1-1.2-0.7-1.9-1.4z"/>
	<path class="s18" d="m322.4 716q-0.2-1.1 0.5-2.8 0.2 1.1-0.5 2.8z"/>
	<path class="s12" d="m184.1 394.6c-0.6-0.2-1.3-0.7-2-1.5 0.7 0.2 1.3 0.7 2 1.5z"/>
	<path class="s4" d="m548 39.6c-0.8 0.1-1.7-0.2-2.7-0.8 0.8-0.1 1.7 0.2 2.7 0.8z"/>
	<path class="s18" d="m328.4 698c-0.1-0.7 0.1-1.7 0.7-2.7 0.1 0.8-0.1 1.6-0.7 2.7z"/>
	<path class="s18" d="m324.4 710q-0.2-1.1 0.5-2.8 0.2 1.1-0.5 2.8z"/>
	<path class="s17" d="m599.4 925.4c-0.4-0.4-0.9-1.1-1.3-2.2 0.4 0.4 0.8 1.1 1.3 2.2z"/>
	<path class="s18" d="m327.4 701q-0.2-1.1 0.5-2.8 0.2 1.1-0.5 2.8z"/>
	<path class="s18" d="m326.4 704q-0.2-1.1 0.5-2.8 0.2 1.1-0.5 2.8z"/>
	<path class="s8" d="m655.7 955.1c0.1 0.2-0.1 0.5-0.6 0.9 0-0.3 0.2-0.6 0.6-0.9z"/>
	<path class="s12" d="m200.9 411.7c-0.2 0.1-0.5-0.1-0.9-0.5 0.4-0.2 0.6 0 0.9 0.5z"/>
	<path class="s17" d="m600.4 927.5c-0.4-0.2-0.8-0.6-1.1-1.4 0.4 0.1 0.7 0.6 1.1 1.4z"/>
	<path class="s12" d="m194.1 448.3c0.2-0.1 0.5 0.1 0.9 0.5-0.4 0.2-0.6 0-0.9-0.5z"/>
	<path class="s12" d="m225.1 480.3c0.2-0.1 0.5 0.1 0.9 0.5-0.4 0.2-0.6 0-0.9-0.5z"/>
	<path class="s12" d="m193 403.7q-0.3 0.1-0.8-0.6 0.2-0.1 0.8 0.6z"/>
	<path class="s15" d="m696.4 844.7q0.2 0.5-0.4 1-0.3-0.5 0.4-1z"/>
	<path class="s15" d="m695.6 845.8c0 0.4-0.3 0.7-0.9 1.1 0-0.3 0.2-0.7 0.9-1.1z"/>
	<path class="s12" d="m194 404.7q-0.2 0.1-0.8-0.6 0.2-0.1 0.8 0.6z"/>
	<path class="s12" d="m197 407.7q-0.3 0.1-0.8-0.6 0.2-0.1 0.8 0.6z"/>
	<path class="s12" d="m198 408.7q-0.3 0.1-0.9-0.6 0.3 0 0.9 0.6z"/>
	<path class="s4" d="m899 932.7q-0.2 0.1-0.8-0.6 0.2-0.1 0.8 0.6z"/>
	<path class="s4" d="m890.1 923.6q-0.3 0.1-0.9-0.6 0.3-0.1 0.9 0.6z"/>
	<path class="s4" d="m891.1 924.7q-0.3 0.1-0.9-0.7 0.3-0.1 0.9 0.7z"/>
	<path class="s4" d="m892.1 925.7q-0.3 0.1-0.9-0.6 0.3-0.1 0.9 0.6z"/>
	<path class="s4" d="m893.1 926.7q-0.3 0.1-0.9-0.6 0.3-0.1 0.9 0.6z"/>
	<path class="s4" d="m894.1 927.7q-0.3 0.1-0.9-0.6 0.3-0.1 0.9 0.6z"/>
	<path class="s12" d="m182.2 392.6q-0.4 0.1-1-0.6 0.4-0.1 1 0.6z"/>
	<path class="s4" d="m895.1 928.7q-0.3 0.1-0.9-0.6 0.3-0.1 0.9 0.6z"/>
	<path class="s4" d="m897.1 930.7q-0.3 0.1-0.9-0.6 0.3-0.1 0.9 0.6z"/>
	<path class="s4" d="m889.2 922.6q-0.4 0.1-1-0.6 0.3-0.1 1 0.6z"/>
	<path class="s4" d="m901 934.7q-0.3 0.1-0.9-0.6 0.3-0.1 0.9 0.6z"/>
	<path class="s4" d="m904 937.8c-0.2 0.1-0.4 0.1-0.4-0.1 0.2-0.1 0.4 0 0.4 0.1z"/>
	<path class="s12" d="m181.2 391.6q-0.4 0.1-1-0.6 0.4-0.1 1 0.6z"/>
	<path class="s8" d="m653.7 957q0.1 0.2-0.6 0.8-0.1-0.2 0.6-0.8z"/>
	<path class="s12" d="m150.6 390.8q0.1 0.4-0.8 1-0.1-0.3 0.8-1z"/>
	<path class="s12" d="m180.2 390.6q-0.4 0.1-1-0.6 0.4-0.1 1 0.6z"/>
	<path class="s12" d="m151.6 389.8q0.1 0.4-0.6 1-0.1-0.4 0.6-1z"/>
	<path class="s12" d="m192 402.7q-0.2 0.1-0.8-0.6 0.3-0.1 0.8 0.6z"/>
	<path class="s17" d="m598.2 922.7c-0.2 0-0.4-0.2-0.5-0.5 0.2-0.1 0.4 0.3 0.5 0.5z"/>
	<path class="s17" d="m242.9 920.7c-0.2 0-0.4-0.2-0.7-0.7 0.2 0 0.5 0.2 0.7 0.7z"/>
	<path class="s17" d="m242.1 919.7q-0.3 0.1-0.9-0.6 0.3-0.1 0.9 0.6z"/>
	<path class="s4" d="m885.2 918.6q-0.4 0.1-1-0.6 0.4-0.1 1 0.6z"/>
	<path class="s17" d="m241.1 918.7q-0.3 0.1-0.9-0.6 0.3-0.1 0.9 0.6z"/>
	<path class="s4" d="m884.2 917.6q-0.4 0.1-1-0.6 0.4-0.2 1 0.6z"/>
	<path class="s17" d="m240.1 917.7q-0.3 0.1-1-0.6 0.3-0.1 1 0.6z"/>
	<path class="s4" d="m883.2 916.6q-0.3 0.1-1-0.6 0.4-0.2 1 0.6z"/>
	<path class="s4" d="m882.2 915.6q-0.4 0.1-1-0.8 0.3-0.1 1 0.8z"/>
	<path class="s12" d="m185.1 395.6q-0.3 0.1-0.9-0.6 0.3-0.1 0.9 0.6z"/>
	<path class="s12" d="m186.1 396.6q-0.3 0.1-0.9-0.6 0.3-0.1 0.9 0.6z"/>
	<path class="s12" d="m152.6 388.8q0.1 0.4-0.6 1-0.1-0.4 0.6-1z"/>
	<path class="s12" d="m187.1 397.7q-0.3 0.1-0.9-0.6 0.3-0.1 0.9 0.6z"/>
	<path class="s12" d="m189.1 399.7q-0.3 0-0.9-0.7 0.3 0 0.9 0.7z"/>
	<path class="s12" d="m195 449.3q0.3-0.1 0.9 0.5-0.3 0.1-0.9-0.5z"/>
	<path class="s12" d="m217.7 472.5c0.3-0.1 0.6 0.1 1 0.6-0.3 0.1-0.6-0.1-1-0.6z"/>
	<path class="s12" d="m216.7 471.5c0.3-0.1 0.6 0.1 1 0.6-0.3 0.1-0.6-0.1-1-0.6z"/>
	<path class="s12" d="m215.7 470.5c0.3-0.1 0.6 0.1 1 0.6-0.3 0.1-0.6-0.1-1-0.6z"/>
	<path class="s19" d="m571 467.3c0.1 0 0.1 0 0.1 0 0 0-0.1 0.1-0.1 0z"/>
	<path class="s12" d="m154.6 386.9q0.1 0.3-0.6 0.9-0.1-0.3 0.6-0.9z"/>
	<path class="s12" d="m208.9 463.4q0.3-0.1 0.9 0.6-0.3 0.1-0.9-0.6z"/>
	<path class="s12" d="m207.9 462.4q0.3-0.1 0.9 0.6-0.3 0.1-0.9-0.6z"/>
	<path class="s12" d="m206.9 461.4q0.3-0.1 0.9 0.6-0.3 0.1-0.9-0.6z"/>
	<path class="s12" d="m204.9 459.3q0.3 0 0.9 0.7-0.3 0.1-0.9-0.7z"/>
	<path class="s12" d="m203.9 458.3q0.3-0.1 0.9 0.6-0.3 0.1-0.9-0.6z"/>
	<path class="s12" d="m202.9 457.3q0.3-0.1 0.9 0.6-0.3 0.1-0.9-0.6z"/>
	<path class="s12" d="m201.9 456.3q0.3-0.1 0.9 0.6-0.3 0.1-0.9-0.6z"/>
	<path class="s12" d="m200 454.3q0.3-0.1 0.8 0.6-0.2 0.1-0.8-0.6z"/>
	<path class="s12" d="m199 453.3q0.3-0.1 0.9 0.6-0.3 0-0.9-0.6z"/>
	<path class="s12" d="m176.2 386.6q-0.4 0.1-0.9-0.6 0.3-0.2 0.9 0.6z"/>
	<path class="s12" d="m177.2 387.6q-0.4 0.1-1-0.6 0.4-0.1 1 0.6z"/>
	<path class="s12" d="m231 442.7q-0.2 0.1-0.8-0.6 0.2-0.1 0.8 0.6z"/>
	<path class="s12" d="m230 441.7q-0.3 0.1-0.8-0.6 0.2-0.1 0.8 0.6z"/>
	<path class="s12" d="m229 440.7q-0.2 0.1-0.8-0.6 0.3-0.1 0.8 0.6z"/>
	<path class="s12" d="m227.1 438.7q-0.3 0.1-0.9-0.6 0.3-0.1 0.9 0.6z"/>
	<path class="s12" d="m226.1 437.7q-0.3 0.1-0.9-0.6 0.3-0.1 0.9 0.6z"/>
	<path class="s12" d="m225.1 436.7q-0.3 0-0.9-0.7 0.3-0.1 0.9 0.7z"/>
	<path class="s12" d="m224.1 435.6q-0.3 0.1-0.9-0.6 0.3-0.1 0.9 0.6z"/>
	<path class="s12" d="m223.2 434.6q-0.4 0.1-1-0.6 0.4-0.1 1 0.6z"/>
	<path class="s12" d="m222.2 433.6q-0.4 0.1-1-0.7 0.3-0.1 1 0.7z"/>
	<path class="s12" d="m178.8 432.4c0.2 0 0.4 0.1 0.6 0.4-0.2 0.1-0.5-0.2-0.6-0.4z"/>
	<path class="s12" d="m177.8 431.4q0.4-0.1 1 0.6-0.4 0.1-1-0.6z"/>
	<path class="s12" d="m159.7 381.9q0.1 0.3-0.6 0.9-0.1-0.3 0.6-0.9z"/>
	<path class="s12" d="m153.6 387.9q0.1 0.3-0.6 0.9-0.1-0.3 0.6-0.9z"/>
	<path class="s12" d="m176.8 430.4q0.4-0.1 1 0.6-0.3 0.1-1-0.6z"/>
	<path class="s12" d="m164 417.3q0.3-0.1 0.8 0.6-0.2 0.1-0.8-0.6z"/>
	<path class="s12" d="m167 420.3q0.2-0.1 0.8 0.6-0.2 0.1-0.8-0.6z"/>
	<path class="s12" d="m163.7 378q0.1 0.3-0.6 0.8-0.1-0.2 0.6-0.8z"/>
	<path class="s12" d="m161.7 379.9q0.1 0.3-0.6 0.9-0.1-0.2 0.6-0.9z"/>
	<path class="s12" d="m160.7 380.9q0.1 0.3-0.6 0.9-0.1-0.2 0.6-0.9z"/>
	<path class="s12" d="m167.9 421.3q0.3-0.1 0.9 0.6-0.3 0.1-0.9-0.6z"/>
	<path class="s12" d="m168.9 422.3q0.3-0.1 0.9 0.6-0.3 0.1-0.9-0.6z"/>
	<path class="s12" d="m169.9 423.3q0.3-0.1 0.9 0.6-0.3 0.1-0.9-0.6z"/>
	<path class="s12" d="m170.9 424.3q0.3 0 0.9 0.7-0.3 0.1-0.9-0.7z"/>
	<path class="s12" d="m178.2 388.6q-0.4 0.1-1-0.6 0.4-0.1 1 0.6z"/>
	<path class="s12" d="m179.2 389.6q-0.4 0.1-1-0.6 0.4-0.1 1 0.6z"/>
	<path class="s12" d="m172.9 426.4q0.3-0.2 0.9 0.5-0.3 0.1-0.9-0.5z"/>
	<path class="s12" d="m158.7 382.9q0.1 0.3-0.6 0.9-0.1-0.3 0.6-0.9z"/>
	<path class="s12" d="m157.7 383.9q0 0.3-0.7 0.9-0.1-0.3 0.7-0.9z"/>
	<path class="s12" d="m173.9 427.4q0.3-0.1 0.9 0.6-0.3 0.1-0.9-0.6z"/>
	<path class="s12" d="m175.2 385.5q-0.4 0.1-1-0.8 0.3-0.1 1 0.8z"/>
	<path class="s12" d="m174.9 428.4q0.3-0.1 0.9 0.6-0.3 0.1-0.9-0.6z"/>
	<path class="s12" d="m155.7 385.9q0.1 0.3-0.6 0.9-0.1-0.3 0.6-0.9z"/>
	<path class="s12" d="m230 485.3q0.3-0.1 0.8 0.6-0.2 0-0.8-0.6z"/>
	<path class="s12" d="m175.9 429.4q0.3-0.1 0.9 0.6-0.3 0.1-0.9-0.6z"/>
	<path class="s12" d="m219.7 474.6c0.1 0 0.4 0 0.5 0.3-0.1 0.1-0.5-0.1-0.5-0.3z"/>
	<path class="s12" d="m218.7 473.6c0.2-0.1 0.6 0 1 0.5-0.3 0.1-0.6-0.1-1-0.5z"/>
	<path class="s13" d="m560.8 705.2c0.1 2.4 0.2 4.7-0.1 7.5-1.8-0.6-3.3-1.6-5-2.8-6-4.3-11.8-8.4-17.7-12.7-1.2-0.9-2.1-1.5-3.2-2.2-0.2-0.2-0.7-0.2-0.7-0.1-0.1 0 0 0-0.1-0.2-0.3-0.5-0.6-0.6-1-0.8 0 0.1 0.1 0.1 0-0.2-0.4-0.4-0.7-0.6-1-0.7 0 0 0 0-0.2-0.3-4.3-3.2-8.4-6.2-12.7-9.4-6 6.5-11.6 12.6-17.2 18.7-20.4-15.2-40.9-30.3-61.3-45.6-24.1-18-48.1-36.3-72.2-54.3-18.7-14-37.5-27.8-56.3-41.7-2.2-1.6-4.4-3.5-6.9-5.9-0.2-5.1-0.1-9.6-0.2-14.1-0.2-5.4-0.5-10.9-0.8-16.3 0-3.8 0-7.5 0-12.2 8.6 6.6 16.7 12.9 25.1 19.2 7.5 5.8 14.6 11.8 21.9 17.4 18.5 14.2 37.1 28.3 55.7 42.4 16.8 12.6 33.7 25.1 50.5 37.8 17.9 13.5 35.8 27.2 53.7 40.8 1.3 1 2.8 1.7 4.7 2.9 15.4 11.2 30.2 22 45 32.8z"/>
	<path class="s5" d="m548.6 774c0.4 3.1 0.4 6.1 0.4 9.5-0.7 6.5-1.5 12.5-1.9 18.5-0.6 8.3-0.8 16.6-1.2 24.9 0 0.8-0.4 1.6-1.2 2.7-20 0.4-39.3 0.4-58.7 0.4 1-11.2 1.9-22.4 3-33.6 1.5-13.8 3.3-27.6 4.8-41.4 0.4-3.4 0.4-6.8 0.6-11.4 8.7 4.9 16.4 9.2 24.2 13.5 9.9 5.6 19.7 11.3 30 16.9z"/>
	<path class="s20" d="m485.6 830c19.8 0 39.1 0 58.9 0 1 0.3 1.4 0.6 2.2 1 2.1 0.6 3.9 1.1 6 1.8 0 10.4 0 21 0 31.4-2.7 0.7-5.1 1.4-7.6 2.5-0.6 0.3-1 0.3-1.8 0.3-0.3 0.1-0.3 0-0.6-0.3-10.1-0.2-19.9 0-29.7 0.1-11.3 0-22.7 0-34.5-0.1-2.8-1.8-3.7-4-3.6-7.1 0.3-7.8 0.4-15.6 0-23.3-0.3-4.9 1-7.2 6.2-6.3 1.3 0.2 2.7 0 4.5 0z"/>
	<path class="s21" d="m538.1 697.4c5.8 4.1 11.6 8.2 17.4 12.8-4.8 6.2-9.9 11.8-14.6 17.6-2.6 3.2-4.6 6.9-6.9 10.3-5.7-4.1-11.3-8.2-16.8-12.8 4.7-6 9.5-11.4 14-17.1 2.6-3.3 4.6-7.2 6.9-10.8z"/>
	<path class="s21" d="m501.8 702.3c5.7-6.4 11.3-12.5 17.3-19 4.3 3.2 8.4 6.2 12.3 9.4-1.9 1.1-4.1 1.6-5.3 2.9-4 4.4-7.6 9.2-11.3 13.8q-3.6 4.4-7.2 8.9c-3.9-2.7-7.9-5.4-12.4-8.4 2.4-2.7 4.4-5 6.6-7.6z"/>
	<path class="s16" d="m534.1 738.4c2.2-3.7 4.2-7.4 6.8-10.6 4.7-5.8 9.8-11.4 14.9-17.4 1.6 0.7 3.1 1.7 4.9 2.7 2.1 9.2-2.4 15.8-8.8 21.6-3.3 2.9-6.2 6.2-9.7 9.3-2.9-1.7-5.4-3.5-8.1-5.6z"/>
	<path class="s16" d="m507.7 718.2q3.5-4.4 7.1-8.8c3.7-4.6 7.3-9.4 11.3-13.8 1.2-1.3 3.4-1.8 5.6-2.6 0.3 0 0.3 0 0.4 0.2 0.4 0.4 0.7 0.6 1 0.8 0 0-0.1 0 0 0.2 0.4 0.4 0.7 0.6 1 0.7 0 0-0.1 0 0 0.1 0.3 0.2 0.6 0.1 0.9 0.1 0.9 0.6 1.8 1.2 3 2.1-2.2 3.8-4.2 7.7-6.8 11-4.5 5.7-9.3 11.1-14.2 16.8-2.5-1.3-4.6-2.7-7-4.7-0.5-0.8-0.8-1-1.1-1.2 0 0 0.1 0-0.1-0.2-0.4-0.4-0.7-0.6-1-0.7 0 0-0.1 0-0.1 0z"/>
	<path class="s15" d="m274.1 553.1c9.4-0.2 18.7 0 28.7 0.3 0.8 0.6 1.1 1 1.4 1.5-8.8 0-17.5 0.1-26.2 0-1.3 0-2.6-0.9-3.9-1.8z"/>
	<path class="s12" d="m304.4 554.9c-0.5-0.5-0.8-0.9-1.2-1.6 0.3-9.6 0.6-18.9 0.9-28.7 0.4 4.9 0.7 10.4 0.9 15.8 0.1 4.5 0 9-0.1 13.9 0 0.5-0.4 0.6-0.5 0.6z"/>
	<path class="s21" d="m507.9 718.4q0.3-0.1 0.9 0.5-0.3 0.2-0.9-0.5z"/>
	<path class="s21" d="m508.9 719.3q0.4 0 0.9 0.7-0.3 0.1-0.9-0.7z"/>
	<path class="s6" d="m431.4 336.1c2.5-7.7 4.7-15.1 7.4-22.4 0.5-1.2 2.8-1.8 4.7-2.7 0.6 0 0.8 0.1 1.3 0.5-2.7 9.3-5.7 18.1-8.6 26.8 7.6 6.1 15 11.9 22.2 18.1-4.1 10.4-8.1 20.4-12.1 30.4 9 6.3 17.5 12.3 26.4 18.6 7.2-8.6 14.3-17 21.6-25.6 4.8-5.6 9.3-11 13.8-16.5 0.9-0.1 2-0.7 2.8-0.4 8.3 2.6 16.5 5.4 24.9 8.4-3.1 6.4-6.5 12.3-9.5 18.4-12.1 24.5-24.2 49-36.2 73.5-0.3 0.5-0.4 1-1.2 1.6-1.9-0.2-3.2-0.4-4.3-1.1-9.9-5.6-19.9-11.1-29.6-16.9-18.4-10.9-36.7-21.9-55-32.8 1.6-4.4 2.9-8.7 4.7-13 8.8-21.5 17.7-43 26.7-64.9z"/>
	<path class="s18" d="m380.7 469.7c1-3 2.3-3.9 5.2-2.3 18.5 10.2 37 20.3 55.4 30.5 8.9 4.8 17.8 9.7 27.1 14.9-10.7 20.9-21.2 41.5-31.9 62.3-28.6-16.1-57.3-30.9-84.9-48.5 9.9-19.3 19.4-38 29.1-56.9z"/>
	<path class="s16" d="m561 704.8c-15-10.4-29.8-21.2-44.8-32.4-0.5-11-0.7-21.8-0.9-33.2-0.1-0.7-0.2-1-0.4-1.2 0 0 0.1 0 0.1-0.4-0.4-16.2-0.8-32-1.2-47.8-0.1-2.9 0-5.9 0.3-9.1 1.1-0.4 1.9-0.6 2.8-0.8 8.1-1 16.2-1.9 24.7-2.8 0.4 13.7 0.3 27.3 0.5 41 0.1 13.4 0.5 26.9 1 40.3 0.1 1.9 1.6 4.3 3.1 5.6 5 4.1 10.3 7.9 15.4 11.8 0.8 0.7 2 1.7 2 2.5-0.7 8.7-1.6 17.4-2.6 26.5z"/>
	<path class="s18" d="m399.7 414.1c18.6 10.8 36.9 21.8 55.3 32.7 9.7 5.8 19.7 11.3 29.6 16.9 1.1 0.7 2.4 0.9 4 1.4-4.4 9.7-9.1 19.3-14.2 29.4-3.6-1.9-6.6-3.4-9.6-5.1-25.2-14.1-50.4-28.2-75.7-42.3-2-1.1-4-2.1-2.7-4.9 4.3-9.3 8.7-18.6 13.3-28.1z"/>
	<path class="s19" d="m374.2 378.9c-3.7 4.1-7.2 8-10.6 12.1-2.2 2.5-4 2.2-6.2-0.1-5.8-6-11.9-11.7-17.6-17.7-2.4-2.5-4.2-2.5-6.6 0-6.4 6.8-13 13.3-20 20.4-6.5-6.8-12.5-13.1-18.4-19.6-0.5-0.6-0.1-3.1 0.6-3.8 12.2-11.2 24.6-22.2 37.1-33.5 1.4 1.1 2.5 1.8 3.4 2.7q14.2 13.7 28.4 27.4c3.5 3.4 6.9 7 10.5 10.8 0 0.6-0.2 0.9-0.6 1.3z"/>
	<path class="s0" d="m331 494.7c-12-11.4-24-23.2-36-35.7 2.6-6.3 5.2-12 8-17.6 1.5-0.4 2.6-0.9 3.8-1.4q14.6-3.6 29.1-7.1c5.7-1.4 11.4-2.7 17.6-4.2-4.2 12.6-8.7 25.2-13.3 37.8-2.6 6.9-5.5 13.6-8 20.4-0.8 2.3-0.8 4.9-1.2 7.8z"/>
	<path class="s19" d="m523.6 472c1.6 10.1 3 20.5 4.1 30.8 0.9 7.9 1.6 15.8 2.3 23.7 0.1 1.3-0.1 2.7 0.1 4 1.1 7.2 0.9 7.4-6.1 8.5-6.1 0.9-12.1 2-18.6 2.6-0.6-1.9-0.7-3.3-1-4.8-1.5-8-3.4-16-0.6-24 3.4-7.2 6.7-14.5 10.1-21.6 3.1-6.4 6.3-12.7 9.7-19.2z"/>
	<path class="s12" d="m503.2 542.9c-1.3-6.9-2.3-13.8-3.4-21.2 1.1-3.1 2.2-5.9 3.7-8.8-2.5 7.9-0.6 15.9 0.9 23.9 0.3 1.5 0.4 2.9 0.6 4.8-0.5 0.7-1 1-1.8 1.3z"/>
	<path class="s12" d="m488.7 543.2c4.5-0.2 8.9-0.2 13.8-0.3-2.1 0.7-4.6 1.6-7.1 2-2.1 0.3-4.3 0.1-6.9 0.1-0.3-0.6-0.2-1.1 0.2-1.8z"/>
	<path class="s22" d="m514.8 638.2c0.3 0 0.4 0.3 0.4 0.6-0.2 0-0.3-0.2-0.4-0.6z"/>
	<path class="s16" d="m508 363c-4.4 5.8-8.9 11.2-14.1 16.8-2.5-0.8-4.5-1.5-6.2-2.7-9.8-6.9-19.4-14-29.1-21-7.4-5.9-14.8-11.7-22.4-17.8 2.9-8.7 5.9-17.5 8.9-26.8 3-9.8 5.9-19.3 8.9-29.5 1.5-5.2 2.9-9.6 4.8-14.2 0.6-1.2 0.9-2.3 1-3.4-0.2 0-0.3-0.3-0.3-0.3 0.8-0.4 1.7-0.9 2.4-1.3 5.8 2.2 12.2 5.2 19 7.1 5 1.4 5 3.8 3.7 7.9-4.2 13.4-8.2 26.9-12.4 40.7 13.6 5 27.1 10 40.9 15.1-3.8 8.7-7.4 17.1-11 25.5 2.1 1.3 4 2.4 5.9 3.9z"/>
	<path class="s23" d="m577.9 279.9c2.8-7.5 5.5-14.6 8.5-22.4 9.2 3.1 18.3 6.1 27.9 9.4-3.7 10.2-7.4 20.1-11.2 30.5-9.5-2.9-18.6-5.6-28.4-8.6 1.1-3 2.1-5.8 3.2-8.9z"/>
	<path class="s17" d="m542.4 209.9c0.8-0.3 2.3-1.3 3.3-1 20.4 6 40.7 12.1 61.1 18.2 11.3 3.3 22.6 6.6 33.9 10 0.1 0 0.2 0.1 0.3 0.2-0.2 0.2-0.4 0.4-0.8 0.7-31.6-9.1-62.8-18.3-94-27.5-1.2-0.3-2.3-0.5-3.8-0.6z"/>
	<path class="s17" d="m501.1 243.4c2.7 0.1 5.5 0.2 8.2 0.9 6 1.4 11.9 3 17.7 4.4 2-4.9 3.8-9.6 6-14.4-1.2 5.2-2.8 10.5-4.5 16.3-9.4-2.4-18.3-4.6-27.4-7.2z"/>
	<path class="s17" d="m459.4 252.9c1.5-7.6 3.3-15.4 5.3-23.2 1.1-4.2 2.6-8.4 4.3-12.9-2.9 11.8-6.1 23.9-9.6 36.1z"/>
	<path class="s17" d="m475 210.5q13.7 4.1 27.8 9.2-13.7-4.1-27.8-9.2z"/>
	<path class="s17" d="m533.5 234c2.4-7.9 5.1-15.9 8.1-23.9-2.3 7.9-5 15.8-8.1 23.9z"/>
	<path class="s17" d="m459.5 263.8c0 0.3 0.1 0.6-0.1 0.8-0.5 1.3-0.8 2.3-1 3.3-1.5 4.5-2.9 8.9-4.4 13.7 0.2-2.3 0.3-4.9 0.9-7.5 0.9-4.4 2.1-8.8 3.1-13.7 0.5 0.8 1 1.9 1.5 3.4z"/>
	<path class="s17" d="m503 220.4c3.9 1.2 1.2 2.8-0.3 4.5-0.1-1.4 0.2-2.8 0.3-4.5z"/>
	<path class="s17" d="m469.4 216.4q0.3-2.9 1.8-6.2-0.3 2.9-1.8 6.2z"/>
	<path class="s17" d="m458 258.6c0.1-1.5 0.4-3.4 0.9-5.4 0 1.6-0.4 3.3-0.9 5.4z"/>
	<path class="s17" d="m472.4 209.9c0.5-0.1 1.4-0.1 2.4 0.1-0.7 0.2-1.3 0.1-2.4-0.1z"/>
	<path class="s17" d="m398 181c0.1 0 0.2-0.1 0.1-0.1-0.1 0.1-0.1 0.1-0.1 0.1z"/>
	<path class="s19" d="m316.7 409.4c0.7-2.4 1.6-4.8 2.9-7.4-0.7 2.4-1.6 4.9-2.9 7.4z"/>
	<path class="s19" d="m307.8 430.5c0.6-2.5 1.5-4.9 2.8-7.5-0.7 2.4-1.5 5-2.8 7.5z"/>
	<path class="s19" d="m303 441.4c0.3-1.4 0.8-2.8 1.6-4.4 0.7 0.8 1.1 1.8 1.9 2.9q-1.3 0.8-3.5 1.5z"/>
	<path class="s19" d="m314.1 415.8c0.2-1.4 0.8-2.9 1.6-4.7-0.3 1.4-0.7 3-1.6 4.7z"/>
	<path class="s19" d="m320.1 401.8c0.2-1.1 0.6-2.4 1.4-3.9-0.2 1.2-0.6 2.5-1.4 3.9z"/>
	<path class="s19" d="m305.1 436.8c0.1-1.1 0.6-2.4 1.2-3.8-0.1 1-0.5 2.4-1.2 3.8z"/>
	<path class="s19" d="m311.1 422.8c0.1-1.2 0.5-2.4 1.2-3.9-0.1 1.1-0.5 2.5-1.2 3.9z"/>
	<path class="s19" d="m312.8 418.6c-0.1-0.8 0.2-1.6 0.8-2.6 0 0.7-0.2 1.6-0.8 2.6z"/>
	<path class="s19" d="m306.8 432.6c-0.2-0.5 0-1 0.4-1.7 0.1 0.4 0 1.1-0.4 1.7z"/>
	<path class="s19" d="m316.1 410.8c-0.3-0.2-0.2-0.5 0.1-1 0.1 0.2 0.2 0.6-0.1 1z"/>
	<path class="s19" d="m321.9 397.8c-0.2 0-0.1-0.4 0-0.6 0.2 0 0.4 0.2 0.6 0.4-0.2 0.1-0.3 0.1-0.6 0.2z"/>
	<path class="s17" d="m535 44.6c0.1-0.9 0.2-2.2 0.6-3.5 0.1 1-0.2 2.1-0.6 3.5z"/>
	<path class="s16" d="m234.5 446.9c-0.1 0.1-0.3-0.4-0.3-0.6 0.4-0.1 0.5 0.1 0.3 0.6z"/>
	<path class="s16" d="m234.5 487.9c-0.1 0.1-0.3-0.4-0.2-0.6 0.3-0.1 0.4 0.1 0.2 0.6z"/>
	<path class="s0" d="m513.5 866.9c9.3-0.2 19.1-0.4 29.2-0.3 0.1 0.3-0.1 0.4-0.5 0.5-9.6 0-18.9 0-28.7-0.2z"/>
	<path class="s19" d="m514.1 580.7c-6.7 0.8-13.1 1.3-20.4 1.8-1.9-11.3-3.9-23-5.8-35 1.4 5 2.9 10.5 4.1 16 0.9 4.3 1.4 8.8 2.1 13.1 0.6 3.1 1.5 4.7 5.6 3.9 5.4-1.2 11.1-0.9 16.9-0.9-0.6 0.5-1.4 0.7-2.5 1.1z"/>
	<path class="s21" d="m534 694.7q-0.3 0.1-0.9-0.6 0.4-0.1 0.9 0.6z"/>
	<path class="s21" d="m534.8 695c-0.1 0.1-0.4 0.2-0.7 0 0-0.2 0.5-0.2 0.7 0z"/>
	<path class="s21" d="m533 693.7q-0.3 0.1-0.9-0.5 0.3-0.1 0.9 0.5z"/>
	<path class="s3" d="m458.4 356.4c9.9 6.7 19.5 13.8 29.3 20.7 1.7 1.2 3.7 1.9 6 2.9-6.7 8.4-13.8 16.8-21 25.4-8.9-6.3-17.4-12.3-26.4-18.6 4-10 8-20 12.1-30.4z"/>
	<path class="s3" d="m458.8 267.8q-0.2-1.3 0.8-3.2 0.1 1.3-0.8 3.2z"/>
</svg>