<svg viewBox="0 0 72 72" xmlns="http://www.w3.org/2000/svg"><path d="m51.935 35.8718c4.1996.9278 6.7648 5.4824 6.7648 5.4824s-4.2448 3.05-8.4449 2.1226-6.7648-5.4824-6.7648-5.4824 4.247-3.0482 8.4449-2.1226z" fill="#b1cc33"/><path d="m22.3618 19.992c4.067 1.3991 6.0978 6.2158 6.0978 6.2158s-4.5639 2.5478-8.6315 1.149-6.0978-6.2158-6.0978-6.2158 4.566-2.5458 8.6315-1.149z" fill="#5c9e31"/><g fill="none" stroke="#000" stroke-linecap="round" stroke-linejoin="round" stroke-width="2"><path d="m36 63.1661v-12l-5-22"/><path d="m36 51.1661 5-10"/><path d="m22.3618 19.992c4.067 1.3991 6.0978 6.2158 6.0978 6.2158s-4.5639 2.5478-8.6315 1.149-6.0978-6.2158-6.0978-6.2158 4.566-2.5458 8.6315-1.149z"/><path d="m51.935 35.8718c4.1996.9278 6.7648 5.4824 6.7648 5.4824s-4.2448 3.05-8.4449 2.1226-6.7648-5.4824-6.7648-5.4824 4.247-3.0482 8.4449-2.1226z"/></g></svg>